<?xml version="1.0" encoding="utf-8"?>
<!-- Generator: Adobe Illustrator 19.0.1, SVG Export Plug-In . SVG Version: 6.00 Build 0)  -->
<svg version="1.1" id="Layer_1" xmlns="http://www.w3.org/2000/svg" xmlns:xlink="http://www.w3.org/1999/xlink" x="0px" y="0px"
	 viewBox="0 0 123.3 97.2" style="enable-background:new 0 0 123.3 97.2;" xml:space="preserve">
<style type="text/css">
	.st0{fill-rule:evenodd;clip-rule:evenodd;fill:#FFFFFF;}
</style>
<g>
	<path class="st0" d="M112.5,7c-1.7,0.5-3.3,1.2-4.9,1.9c-4.2,2-8.6,3.8-12.6,6.2C88,19.2,81.2,23.4,74.7,28
		c-4.7,3.3-8.8,7.3-13.5,11.3c-1.4-2.1-2.3-4.3-3.8-5.9C50.6,26,43.6,18.9,34.9,13.9c-4.8-2.7-9.7-5.4-14.7-7.7
		c-3.3-1.5-7-2.3-10.7-2.9c-1.3-0.2-4,0.9-4.3,1.8c-1.9,8.1-1.1,16,2.7,23.4c1.8,3.6,4.3,7,6.7,10.3c3.6,5.1,7.2,10.3,11.1,15.2
		c5.5,6.8,11.3,13.4,17.1,20c0.8,1,1.7,1.9,2.6,2.8c0.1,0,0.1,0.1,0.2,0.1c0.2,0.1,0.4,0.3,0.6,0.5c0.1,0.1,0.2,0.2,0.2,0.3
		c0,0,0.1,0.1,0.1,0.1c0.2,0.1,0.3,0.2,0.4,0.4c0.8,0.5,1.5,1.2,2.1,1.9c2.1,1.8,4.4,3.4,6.2,5.5c0.4,0.1,0.7,0.4,1,0.7
		c0,0,0.1,0,0.1,0.1c0.4,0.3,0.7,0.6,1,0.9c2.6,1.6,4.9,3.7,7.5,5.4c0.1,0,0.2,0.1,0.2,0.1c0.3,0,0.7-0.1,1.1-0.1c0,0,0.1,0,0.1,0
		c0.1-0.1,0.3-0.1,0.4-0.1c0.6-0.3,1.3-0.6,2-0.7c0.1-0.1,0.3-0.2,0.4-0.2c0.2-0.2,0.4-0.5,0.6-0.7c3.8-5.3,7.6-10.5,11.2-15.9
		c0.7-1.1,1.6-2.2,2.2-3.4c0.1-0.2,0.3-0.3,0.4-0.5c0.1-0.1,0.1-0.1,0.2-0.2c0.7-1.2,1.4-2.5,2.1-3.8c2.5-4.4,5.5-8.4,8.3-12.6
		c0.1-0.1,0.2-0.2,0.2-0.3c0.5-0.8,1.1-1.5,1.7-2.3c0,0,0,0,0,0c0,0,0.1-0.1,0.1-0.1c0.1-0.1,0.1-0.2,0.2-0.3
		c0.3-0.4,0.5-0.7,0.8-1.1c0.2-0.2,0.3-0.4,0.4-0.6c0.4-0.4,0.8-0.8,1.1-1.2c1.9-2.8,3.6-5.8,5.4-8.6c1.6-2.6,3.5-5.1,5-7.7
		c2.2-3.9,4.1-8,6.5-11.8c1.6-2.6,3.6-4.6,3.6-8.1C119.1,8.6,116.2,5.9,112.5,7z M63,82c-4.8-5-9.7-9.9-14.4-15
		c-4.2-4.5-8.3-9-12.1-13.7c-3.4-4.1-6.3-8.4-9.5-12.6c-1.7-2.2-3.5-4.3-5.3-6.4c-4.1-4.9-7.1-10.3-8.6-16.5c-0.4-1.5-0.3-3.1-0.4-5
		c-0.1-0.3,0-0.6,0.4-0.6c0.1,0,0.1,0,0.2,0l0,0c2.8,0.9,5.4,1.6,7.7,2.6c5.5,2.4,11.2,4.2,15.7,8.5c0.9,0.9,1.8,1.7,2.8,2.5
		c1.7,1.5,3.5,3,5.2,4.6c2,1.9,3.9,4,5.8,6.1c0.1,0,0.1,0.1,0.2,0.1c0.1,0,0.1,0.1,0.1,0.2c0.2,0.1,0.3,0.2,0.4,0.4
		c0,0,0.1,0,0.1,0.1c1.3,1.2,2.2,2.6,3,4.1c0.8,1,1.4,2,2,3.2c1,1.8,2.2,3.4,3.3,5.1c0.3,0.2,0.6,0.3,0.9,0.4
		c0.6,0.1,1.2,0.3,1.8,0.3c0.4-0.1,0.7-0.2,1.1-0.3c2.8-2.4,5.6-4.9,8.3-7.4c0.7-0.6,1.4-1.2,2-1.7c0.1-0.1,0.1-0.2,0.2-0.3
		c0.4-0.4,0.8-0.8,1.3-1.1c1.1-1.4,2.7-2.1,4.2-3.1c1.9-1.3,3.4-3.1,5.4-4.3c0,0,0,0,0,0c0.1-0.1,0.2-0.2,0.3-0.3
		c0.1-0.1,0.2-0.1,0.3-0.2c0.2-0.1,0.5-0.3,0.7-0.4c4-3.2,8.1-6.1,12.7-8.3c1.5-0.8,3.1-1.5,4.8-2.1c0.1,0.1,0.2,0.2,0.3,0.3
		C90.9,42,77.7,62.7,63,82z"/>
	<path class="st0" d="M90.8,88.6c0.3,2.3-1.6,5.1-3.7,5.3c-1.9,0.2-3.3-0.4-3.6-2.6c-0.2-1.8,2.1-5.2,3.9-5.2
		C89.1,86,90.7,86.4,90.8,88.6z"/>
</g>
</svg>
