<?xml version="1.0" encoding="utf-8"?>
<!-- Generator: Adobe Illustrator 19.0.1, SVG Export Plug-In . SVG Version: 6.00 Build 0)  -->
<svg version="1.1" id="Layer_1" xmlns="http://www.w3.org/2000/svg" xmlns:xlink="http://www.w3.org/1999/xlink" x="0px" y="0px"
	 viewBox="0 0 240.7 132.7" style="enable-background:new 0 0 240.7 132.7;" xml:space="preserve">
<style type="text/css">
	.st0{fill:#010101;}
</style>
<g>
	<g>
		<path class="st0" d="M37.8,28.6c-0.5,0-4-0.1-4.5-0.1v15.8h-8.4V5.1h13.2c8.1,0,11.9,4.9,11.9,11.2C50.1,24.4,44.2,28.6,37.8,28.6
			z M35,22.6c5.5,0,7.1-0.6,7.1-6.3c0-3.1-0.9-5.6-4.3-5.6h-4.5v11.9H35z"/>
		<path class="st0" d="M70.9,44.3l-8.1-15.8c-1.2,0-2.4,0-2.7,0v15.8h-8.4V5.1h14.2c8.1,0,12,4.9,12,11.2c0,5.8-3.1,9.6-7.1,11.3
			l9,16.8H70.9z M60.1,22.6h2.7c5.5,0,7-0.6,7-6.3c0-3.1-0.9-5.6-4.2-5.6h-5.5V22.6z"/>
		<path class="st0" d="M104.8,13.3V36c0,4-3.8,8.9-12.3,8.9c-9.4,0-12.7-4.8-12.7-8.9V13.3c0-4,3.3-8.7,12.7-8.7
			C101,4.6,104.8,9.3,104.8,13.3z M96.3,13.4c0-1.2-1.4-3.3-3.8-3.3c-3,0-4.2,2.1-4.2,3.2v22.6c0,1.3,1.2,3.4,4.2,3.4
			c2.4,0,3.8-2.2,3.8-3.4V13.4z"/>
		<path class="st0" d="M141.5,5.1v39.2H133V20.2l-5.6,24.1h-5.8l-5.4-24.1H116v24.1h-8.5V5.1H119l5.4,23.5h0.1l5.5-23.5H141.5z"/>
		<path class="st0" d="M169.3,13.3V36c0,4-3.8,8.9-12.3,8.9c-9.4,0-12.7-4.8-12.7-8.9V13.3c0-4,3.3-8.7,12.7-8.7
			C165.5,4.6,169.3,9.3,169.3,13.3z M160.8,13.4c0-1.2-1.4-3.3-3.8-3.3c-3,0-4.2,2.1-4.2,3.2v22.6c0,1.3,1.2,3.4,4.2,3.4
			c2.4,0,3.8-2.2,3.8-3.4V13.4z"/>
		<path class="st0" d="M195,10.6h-8.8v33.7h-8.5V10.6h-8.7V5.1H195V10.6z"/>
		<path class="st0" d="M205.1,10.7v9.6h8.6v5.6h-8.6v12.8h13v5.6h-21.5V5.1h20.5v5.6H205.1z"/>
	</g>
	<path class="st0" d="M71.6,68.4c0.1-0.4-0.2-0.8-0.5-1.1c-1.3-1.9-1.8-4.2-2.6-6.4c-0.3-0.9-0.4-1.8-0.7-2.8
		c-0.3-1.3-0.5-2.6-0.4-4c0.1-2.7,0.2-5.4,0.2-8.1c0-1.8,0.3-3.5,0.3-5.3c0-0.7-0.2-1.3,0.3-1.8c0.4-0.4,1-0.6,1.6-0.7
		c0.3,0,0.7-0.1,1.1-0.1c1,0.1,2.1,0.9,1.9,2.1c-0.1,0.6-0.3,1.1-0.3,1.7c0,0.8-0.1,1.6-0.1,2.4c-0.1,1.3-0.2,2.7-0.2,4
		c-0.1,1.7-0.1,3.5-0.1,5.2c0,2.1,0.3,4.1,0.9,6.1c0.2,0.8,0.3,1.6,0.7,2.3c0.7,1.4,1.6,2.7,2.2,4.1c0.1,0.2,0.2,0.8,0.5,0.8
		c0.1,0,0.4-0.1,0.5-0.1c0.2,0,0.4,0,0.5-0.1c0.5-0.1,1-0.3,1.5-0.4c1.1-0.1,2.2-0.4,3.3-0.6c1.5-0.2,3-0.3,4.5-0.4
		c0.5,0,1-0.1,1.6-0.1c0.4,0,0.8,0,1.3,0.1c0.9,0.1,1.8,0.1,2.8,0.2c0.3,0,0.7,0,1,0.1c1.1,0.2,2.2,0.4,3.3,0.6
		c0.4,0.1,0.8,0.1,1.2,0.2c0.1,0,0.3-0.1,0.3-0.2c0.2-0.5,0.4-0.9,0.6-1.4c0.3-0.6,0.4-1.3,0.9-1.9c0.3-0.5,0.6-1,0.8-1.5
		c0.2-0.8,0.5-1.5,0.8-2.2c0.4-0.8,0.9-1.5,1.1-2.3c0.2-0.8,0.7-1.5,1-2.2c0.4-0.9,0.8-1.7,1.2-2.6c0.7-1.4,1.5-2.9,2.2-4.3
		c0.2-0.3,0.3-0.7,0.4-1c0.1-0.2,0.2-0.4,0.3-0.6c0.7-0.8,1.1-1.7,1.5-2.6c0.4-0.8,1-1.4,1.4-2.2c0.2-0.4,0.4-0.7,0.6-1.1
		c0.9-1.2,1.7-2.5,2.6-3.6c0.6-0.8,1.4-1.5,1.9-2.3c0.3-0.4,0.8-0.7,1.2-1c0.4-0.3,0.9-0.6,1.4-0.9c1-0.6,2-1.1,3.1-1.4
		c0.9-0.2,1.8-0.1,2.6,0.4c0.6,0.4,1.1,0.9,1.5,1.4c0.4,0.4,0.6,0.9,0.8,1.4c0.6,1.5,0.8,3.1,0.9,4.7c0.1,0.6-0.1,1.3-0.2,1.9
		c-0.2,1-0.3,2-0.6,3c-0.1,0.6-0.4,1.2-0.6,1.8c-0.2,0.6-0.5,1.3-0.8,1.9c-0.3,0.6-0.7,1.2-1,1.9c-0.3,0.7-0.6,1.4-0.9,2
		c-0.2,0.4-0.5,0.8-0.8,1.2c-0.4,0.6-0.8,1.2-1.2,1.8c-0.5,0.7-1,1.5-1.6,2.2c-0.4,0.4-0.6,0.9-1,1.3c-0.8,0.7-1.4,1.6-2.1,2.4
		c-0.4,0.4-0.7,0.8-1.1,1.2c-0.3,0.4-0.6,0.8-1.1,1.1c-0.9,0.5-1.5,1.4-2.3,2c-0.3,0.2-0.5,0.4-0.8,0.6c-0.2,0.1-0.3,0.3-0.4,0.4
		c-0.3,0.2-0.6,0.4-0.8,0.7c-0.3,0.3-0.6,0.5-1,0.7c-0.2,0.1-0.3,0.2-0.5,0.3c-0.2,0.2-0.3,0.2-0.4,0.4c-0.5,0.3-1,0.7-1.5,1
		c-0.3,0.2-0.5,0.4-0.8,0.6c-0.2,0.1-0.5,0.3-0.6,0.5c-0.2,0.6,0.9,1,1.3,1.2c0.6,0.3,1.2,0.9,1.6,1.3c0.2,0.2,0.4,0.5,0.6,0.8
		c0.4,0.7,0.8,1.3,1.2,1.9c0.3,0.6,0.6,1.2,0.9,1.8c0.3,0.8,0.7,1.6,1,2.5c0.2,0.5,0.3,1.1,0.4,1.7c0.1,0.7,0.3,1.4,0.4,2.1
		c0.1,0.7,0.1,1.4,0.3,2c0.1,0.4,0.1,0.7,0.2,1.1c0.1,0.6,0,1.2,0.1,1.8c0.2,1,0.2,2.1,0.2,3.1c0,0.9-0.1,1.8-0.2,2.7
		c0,0.6,0,1.3,0,1.9c0,0.7,0,1.4-0.1,2.1c0,0.7,0,1.3-0.1,2c0,0.6-0.1,1.1-0.2,1.7c0,0.3,0,0.6,0,0.9c-0.1,0.9-0.2,1.7-0.3,2.6
		c0,0.2,0,0.5-0.1,0.7c-0.1,0.6-0.1,1.3-0.1,1.9c-0.2,1.4-0.4,2.8-0.6,4.1c-0.2,1.6-0.5,3.1-0.7,4.7c-0.2,1.2-0.5,2.3-0.8,3.4
		c-0.2,0.7-0.3,1.4-0.4,2c-0.2,0.9-0.5,1.8-0.6,2.8c-0.1,0.7,0.4,1,0.6,1.5c0.2,0.6-0.4,1-0.5,1.5c0,0.2-0.5,0.3-0.7,0.3
		c-0.9,0-1.9,0-2.8,0c-0.2,0-0.4-0.1-0.5-0.3c-0.2-0.4-0.4-0.8-0.4-1.3c0-1.1,0.2-2.1,0.3-3.2c0.1-0.4,0.3-0.8,0.4-1.2
		c0.1-0.4,0.2-0.9,0.4-1.3c0.1-0.3,0.2-0.6,0.2-0.9c0.1-0.3,0.2-0.5,0.2-0.8c0.1-1.3,0.6-2.6,0.8-3.9c0.2-0.8,0.1-1.7,0.3-2.5
		c0.1-0.6,0.1-1.2,0.2-1.8c0-0.3,0.2-0.6,0.1-0.9c0-0.3,0.1-0.6,0.1-0.8c0.2-1.3,0.7-2.7,0.8-4c0.1-0.7,0.1-1.4,0.1-2
		c0.1-0.7,0.2-1.4,0.2-2.1c0-0.3,0-0.5,0-0.8c0.1-0.9,0.1-1.7,0.2-2.6c0.1-1.4,0.1-2.7,0.2-4.1c0-0.6-0.1-1.3-0.1-1.9
		c0-0.6,0-1.2-0.1-1.9c0-0.3-0.1-0.6-0.1-0.9c-0.1-0.7-0.1-1.3-0.2-1.9c-0.2-0.7-0.1-1.4-0.2-2.1c-0.1-0.8-0.3-1.6-0.5-2.4
		c-0.1-0.4-0.1-0.8-0.2-1.3c-0.2-0.7-0.3-1.5-0.6-2.2c-0.4-1.1-0.8-2.1-1.4-3.1c-0.5-0.7-1-1.3-1.6-1.9c-0.6-0.7-1.3-1.4-1.9-2
		c-0.4-0.4-1-0.4-1.5-0.2c-0.3,0.2-0.6,0.3-0.9,0.5c-0.5,0.3-0.7,0.7-0.9,1.2c-0.1,0.3-0.3,0.6-0.5,1c-0.3,0.5-0.5,1-0.7,1.5
		c-0.3,0.6-0.6,1.1-0.9,1.7c-0.2,0.4-0.4,0.8-0.5,1.2c-0.2,0.4-0.2,0.8-0.4,1.3c-0.2,0.4-0.3,0.8-0.5,1.2c-0.2,0.3-0.4,0.5-0.5,0.8
		c-0.4,0.7-0.7,1.4-1.1,2.2c-0.2,0.4-0.4,0.7-0.6,1.1c-0.3,0.5-0.5,1.1-0.7,1.6c-0.3,0.6-0.6,1.2-0.9,1.7c-0.4,0.6-0.7,1.2-1,1.9
		c-0.2,0.5-0.4,0.9-0.7,1.3c-0.4,0.6-0.9,1.2-1.3,1.9c-0.6,1-1.2,2.1-1.8,3.1c-0.5,0.8-1,1.5-1.4,2.3c-0.2,0.3-0.3,0.7-0.4,1
		c-0.2,0.3-0.4,0.6-0.7,0.9c-0.4,0.6-0.8,1.3-1.2,1.9c-0.5,0.8-1.2,1.3-1.9,2c-0.3,0.4-0.6,0.7-1,1.1c-0.6,0.7-1.3,1.5-1.9,2.2
		c-0.5,0.6-0.9,1.1-1.4,1.7c-0.8,0.9-1.8,1.8-2.8,2.6c-0.8,0.6-1.3,1.4-2.1,2.1c-0.3,0.3-0.7,0.5-1,0.8c-0.3,0.4-0.8,0.7-1.1,1.1
		c-0.5,0.6-1.1,1-1.8,1.3c-0.8,0.4-1.5,0.8-2.2,1.2c-0.4,0.2-0.8,0.3-1.2,0.6c-1.4,0.8-2.9,1.5-4.5,1.8c-0.2,0-0.4,0.1-0.6,0.1
		c-1,0.2-2.1,0.5-3.2,0.5c-0.8,0-1.7,0-2.5-0.1c-0.6-0.1-1.2-0.2-1.8-0.5c-0.3-0.1-0.6-0.2-0.8-0.4c-0.3-0.2-0.6-0.2-0.8-0.3
		c-0.4-0.2-0.7-0.5-1-0.7c-0.2-0.1-0.4-0.2-0.6-0.4c-0.5-0.4-1.2-0.6-1.6-1.1c-0.4-0.5-0.8-0.9-1.2-1.3c-1-1-1.4-2.5-1.9-3.8
		c-0.6-1.5-1.2-3.2-1.4-4.8c-0.2-1.1-0.2-2.3-0.4-3.4c-0.2-1,0.1-2.1,0.1-3.2c0.1-1.3,0.1-2.6,0.1-3.9c0-1.1,0.4-1.9,0.6-3
		c0.3-1.1,0.7-2.2,1-3.3c0.2-0.5,0.2-0.9,0.3-1.3c0.2-0.9,0.5-1.6,0.9-2.4c0.9-1.5,1.9-2.9,2.9-4.3c0.3-0.5,0.8-0.9,1.1-1.4
		c0.3-0.4,0.6-0.9,0.9-1.2c0.8-0.8,1.6-1.5,2.4-2.2c0.9-0.8,1.7-1.5,2.6-2.2c0.7-0.5,1.5-1.1,2.2-1.7c0.5-0.5,1.1-0.7,1.7-1
		c1.5-0.9,3.1-1.7,4.7-2.5c1.1-0.6,2.2-1.2,3.4-1.6c0.7-0.3,1.5-0.5,2.2-0.7c0.6-0.2,1.4-0.3,1.9-0.8C71.5,68.6,71.6,68.5,71.6,68.4
		 M45.4,102.8c0,0.3,0,0.6,0,0.9c0,1.1,0,2.3,0.2,3.4c0.1,0.5,0.3,0.9,0.3,1.4c0.1,0.6,0.1,1.1,0.3,1.7c0.2,0.6,0.4,1.1,0.5,1.7
		c0.1,0.5,0.2,1,0.5,1.4c0.1,0.3,0.4,0.4,0.6,0.7c0.2,0.2,0.2,0.4,0.4,0.6c0.3,0.5,0.8,1.1,1.2,1.5c0.6,0.6,1.1,1.2,1.8,1.8
		c0.8,0.6,1.8,1.1,2.9,1.4c1.3,0.4,2.6,0.3,3.8-0.1c0.8-0.3,1.6-0.6,2.4-0.9c0.5-0.2,1.1-0.3,1.6-0.6c0.4-0.2,0.9-0.5,1.3-0.7
		c0.4-0.2,0.9-0.4,1.3-0.7c0.5-0.3,1-0.5,1.5-0.8c0.4-0.3,0.7-0.5,1.1-0.8c0.6-0.4,1.2-0.9,1.8-1.3c0.9-0.7,1.7-1.5,2.6-2.2
		c0.2-0.2,0.4-0.3,0.6-0.4c0.5-0.5,1-1.1,1.5-1.6c0.3-0.4,0.7-0.7,1-1.1c0.4-0.4,0.8-0.8,1.2-1.2c0.6-0.8,1.2-1.6,1.9-2.3
		c0.3-0.3,0.5-0.7,0.8-1.1c0.3-0.4,0.6-0.7,0.9-1c0.4-0.6,0.8-1.2,1.2-1.7c0.7-1,1.4-2.1,2.1-3.1c0.4-0.6,0.7-1.2,1-1.8
		c0.2-0.3,0.4-0.7,0.6-1c0.4-0.6,0.8-1.1,1.1-1.7c0.7-1.3,1.3-2.6,2.1-3.9c0.5-0.8,0.9-1.7,1.3-2.6c0.2-0.4,0.3-0.9,0.6-1.3
		c0.2-0.4,0.5-0.8,0.6-1.3c0.3-0.7,0.6-1.4,1-2.2c0.2-0.4,0.4-0.8,0.6-1.3c0.2-0.3,0.4-0.6,0.5-1c0.4-0.8,0.7-1.6,1-2.4
		c0.2-0.5,0.4-1,0.7-1.4c0.2-0.2,0.3-0.4,0.5-0.6c0.2-0.4,0.5-1.2-0.3-1.1c-1.1,0.1-2.3,0.4-3.4,0.6c-1.8,0.3-3.7,0.3-5.5,0.3
		c-0.5,0-1,0-1.5-0.2c-0.8-0.3-1.7-0.4-2.6-0.6c-0.4-0.1-0.8-0.3-1.2-0.4c-0.4-0.1-0.8-0.4-1.2-0.5c-0.4-0.1-0.9-0.3-1.3-0.5
		c-0.5-0.2-0.9-0.7-1.4-0.9c-0.4-0.2-0.7-0.5-1.1-0.6c-0.2-0.1-0.5-0.2-0.7-0.1c-1,0.3-2,0.6-3,0.9c-0.4,0.1-0.8,0.3-1.2,0.5
		c-0.9,0.4-1.7,0.7-2.6,1.1c-0.7,0.3-1.4,0.6-2.1,1c-0.6,0.3-1.1,0.6-1.7,0.9c-0.5,0.3-1,0.6-1.5,0.9c-0.2,0.2-0.5,0.3-0.7,0.5
		c-0.2,0.2-0.6,0.3-0.8,0.5c-0.2,0.1-0.3,0.3-0.5,0.5c-0.6,0.4-1.1,0.7-1.6,1.1c-0.2,0.1-0.3,0.3-0.4,0.4c-0.3,0.3-0.7,0.5-1,0.8
		c-0.6,0.5-1.1,1-1.7,1.5c-0.8,0.7-1.5,1.3-2.2,2.1c-0.6,0.7-1.1,1.5-1.7,2.2c-0.2,0.3-0.5,0.6-0.7,1c-0.6,0.9-1.1,1.8-1.6,2.8
		c-0.3,0.5-0.4,1-0.7,1.5c-0.4,0.8-0.8,1.5-1,2.4c-0.2,0.6-0.2,1.3-0.4,1.9c-0.1,0.5-0.2,0.9-0.4,1.3c-0.3,0.7-0.4,1.3-0.5,2
		c-0.1,0.7-0.3,1.4-0.4,2.2c-0.1,0.6-0.2,1.2-0.1,1.8C45.4,102.5,45.4,102.7,45.4,102.8 M122.9,40.8c0-0.2,0-0.4,0-0.6
		c-0.1-0.7-0.1-1.4-0.2-2.2c-0.1-0.6,0-1.3-0.1-1.9c-0.1-0.7-0.5-1.2-0.9-1.7c-0.4-0.6-1.1-0.2-1.5,0.2c-0.4,0.4-0.9,0.6-1.3,1
		c-0.5,0.4-0.9,0.9-1.3,1.4c-0.9,1.1-1.8,2.2-2.6,3.3c-0.5,0.7-1.2,1.5-1.6,2.4c-0.6,1.2-1.4,2.2-2,3.3c-0.8,1.3-1.3,2.7-2.1,4
		c-0.4,0.7-0.7,1.5-1.1,2.2c-0.3,0.5-0.5,1.1-0.8,1.6c-0.4,0.8-0.9,1.7-1.3,2.5c-0.3,0.7-0.5,1.4-0.9,2.1c-0.8,1.3-1.2,2.7-1.9,4.1
		c-0.6,1.3-1.2,2.7-1.8,4c-0.1,0.3-0.2,0.6-0.3,0.8c0,0.1,0.1,0.3,0.2,0.4c0.1,0.1,0.3,0.1,0.4,0c0.6-0.3,1.2-0.5,1.7-1
		c0.3-0.3,0.7-0.5,1.1-0.7c0.5-0.3,0.9-0.6,1.4-0.9c0.5-0.3,0.9-0.7,1.4-1.1c1.1-1,2.3-1.9,3.4-2.9c0.9-0.9,1.8-1.8,2.7-2.7
		c0.6-0.6,0.9-1.3,1.5-2c0.3-0.4,0.7-0.8,1-1.2c0.6-0.7,1.2-1.4,1.7-2.2c0.2-0.3,0.3-0.5,0.5-0.8c0.1-0.2,0.2-0.4,0.3-0.5
		c0.3-0.5,0.6-0.9,0.9-1.4c0.4-0.8,0.8-1.5,1.1-2.3c0.1-0.2,0.1-0.5,0.3-0.7c0.2-0.4,0.3-0.8,0.5-1.1c0.4-0.6,0.7-1.4,0.8-2.1
		c0.1-0.7,0.3-1.5,0.5-2.2C122.7,41.6,122.8,41.2,122.9,40.8 M78.7,69.7c1.1,0.5,2,1.1,3,1.5c0.5,0.2,1,0.4,1.5,0.5
		c1,0.2,2.1,0.4,3.2,0.4c1.3,0.1,2.6-0.1,3.9-0.3c1.3-0.1,2.5-0.4,3.8-0.7c0.9-0.2,1.7-0.5,2.3-1.2c0.4-0.4,0.3-0.8-0.3-1
		c-1.3-0.3-2.6-0.7-3.9-0.7c-1,0-2.1-0.1-3.1-0.1c-0.3,0-0.7,0.1-1,0.1c-0.7,0-1.3,0-2,0c-1.2,0.1-2.4,0.3-3.6,0.5
		c-1,0.2-2,0.3-2.9,0.5C79.2,69.3,79,69.5,78.7,69.7"/>
	<path class="st0" d="M141,68.5c0.2-0.1,0.3-0.3,0.4-0.4c0.5-0.7,1.1-1.4,1.6-2.1c0.4-0.6,0.8-1.3,1.3-1.9c0.6-0.7,0.9-1.5,1.2-2.3
		c0.3-0.6,0.6-1.3,0.7-1.9c0.2-1,0.3-1.9-0.1-2.9c-0.1-0.2-0.1-0.5,0-0.7c0.4-0.6,0.9-1.1,1.7-1.4c0.4-0.1,0.8-0.2,1.2-0.3
		c0.2,0,0.5-0.1,0.8,0c0.4,0.1,0.9,0.1,1.2,0.3c0.3,0.2,0.5,0.3,0.8,0.5c0.5,0.2,1.1,0.5,1.1,1.1c0,0.6-0.4,1.2-0.8,1.6
		c-0.5,0.7-1,1.4-1.2,2.1c-0.1,0.4-0.1,0.8-0.2,1.3c0,0.3,0,0.6-0.1,0.9c0,0.5,0.5,0.8,1,0.6c0.5-0.2,1-0.4,1.4-0.6
		c0.9-0.4,1.9-0.9,2.8-1.3c0.3-0.1,0.5-0.4,0.8-0.6c0.4-0.2,0.7-0.5,1.1-0.7c0.4-0.4,0.8-0.8,1.2-1.3c0.3-0.4,0.5-1,0.9-1.4
		c0.9-0.9,1.7-1.7,2.6-2.6c0.2-0.2,0.5-0.4,0.7-0.6c0.3-0.2,0.4-0.5,0.6-0.8c0.3-0.3,0.7-0.5,1-0.8c0.2-0.2,0.4-0.4,0.6-0.6
		c0.6-0.5,1.6-0.4,2.3-0.2c0.9,0.3,1.4,0.9,1.9,1.4c0.1,0.1,0.1,0.3,0.1,0.5c0,0.4,0.1,0.9,0.1,1.3c0,0.7-0.1,1.3-0.5,2
		c-0.8,1.2-1.6,2.4-2.8,3.3c-0.4,0.3-0.9,0.5-1.4,0.7c-0.6,0.2-1.1,0.6-1.6,0.9c-0.1,0.1-0.2,0.1-0.3,0.1c-0.7,0.4-1.5,0.7-2.2,1.1
		c-0.7,0.4-1.3,0.9-1.6,1.6c-0.3,0.9-0.8,1.7-0.9,2.6c-0.1,0.5-0.1,0.9-0.2,1.4c-0.2,0.6,0.1,1.2,0.2,1.7c0.1,0.5,0.3,1,0.5,1.4
		c0.5,0.9,1.4,1.2,2.6,1.2c1.3,0,2.6,0,3.9-0.6c0.5-0.2,0.9-0.3,1.4-0.5c0.7-0.2,1.3-0.5,1.9-0.7c0.6-0.2,1.2-0.3,1.8-0.6
		c0.9-0.4,1.8-0.8,2.8-1c0.9-0.3,1.8-0.9,2.6-1.4c1.1-0.6,2.2-1.2,3.4-1.8c0.7-0.3,1.3-0.7,2-1.1c0.4-0.2,0.9-0.4,1.3-0.7
		c1-0.6,2-1.2,2.9-1.8c0.4-0.3,0.9-0.6,1.3-0.9c0.7-0.6,1.3-1.1,1.7-1.9c0.1-0.2,0.2-0.4,0.4-0.5c0.3-0.4,1-0.4,1.4-0.1
		c0.6,0.4,0.5,1.6,0.3,2.2c-0.1,0.5-0.5,0.9-0.8,1.2c-0.3,0.3-0.5,0.6-0.7,0.9c-0.3,0.3-0.7,0.6-1,0.9c-0.5,0.5-1.1,1-1.8,1.3
		c-0.4,0.2-0.7,0.5-1.1,0.7c-0.9,0.6-1.9,1.1-2.8,1.7c-0.3,0.2-0.7,0.2-0.9,0.4c-1,0.5-1.9,1.1-2.8,1.7c-0.4,0.2-0.8,0.4-1.2,0.6
		c-0.9,0.4-1.7,0.8-2.5,1.3c-0.8,0.5-1.8,0.8-2.6,1.1c-0.5,0.2-1,0.4-1.5,0.6c-1.1,0.5-2.3,0.9-3.5,1.1c-0.2,0-0.4,0.1-0.6,0.2
		c-1.3,0.5-2.7,0.8-4.2,0.9c-1.5,0.1-3.1,0-4.4-0.6c-0.8-0.3-1.6-0.7-2.1-1.4c-0.1-0.1-0.3-0.2-0.4-0.4c-0.7-0.7-1.2-1.4-1.5-2.2
		c-0.2-0.6-0.3-1.2-0.5-1.7c-0.1-0.6-0.1-1.2,0-1.8c0.1-0.7,0.2-1.3,0.3-2c-0.4,0-0.7,0.1-1.1,0.3c-0.5,0.2-1,0.6-1.6,0.7
		c-0.9,0.2-1.8,0.5-2.7,0.1c-0.3-0.1-0.6-0.1-1-0.2c-0.4-0.1-0.6,0.1-0.8,0.3c-0.4,0.5-0.7,1.1-1,1.6c-0.4,0.6-0.8,1.1-1.2,1.7
		c-0.4,0.6-0.9,1.1-1.4,1.6c-0.1,0.2-0.2,0.3-0.4,0.5c-0.3,0.4-0.7,0.8-1,1.2c-0.3,0.5-0.7,0.8-1,1.3c-0.4,0.6-0.7,1.6-1.5,1.9
		c-0.6,0.3-1.1,0.7-1.8,0.9c-0.7,0.2-1.2,0-1.8-0.2c-0.4-0.1-0.6-0.4-0.9-0.6c-0.8-0.6-0.7-1.4-0.4-2.2c0.2-0.5,0.2-1.1,0.3-1.6
		c0.1-0.6,0.2-1.1,0.4-1.7c0.3-1.3,0.7-2.6,0.9-3.9c0.1-0.6,0.2-1.3,0.4-1.8c0.2-0.4,0.3-0.6,0.1-1.1c-0.5,0.3-0.9,0.7-1.3,1.1
		c-1,0.8-1.9,1.7-3,2.4c-0.9,0.6-2,1.1-2.9,1.7c-0.7,0.5-1.4,0.9-2.3,1.1c-0.2,0-0.3,0.2-0.4,0.4c-0.3,0.6-0.3,1.2-0.6,1.7
		c0,0.1-0.1,0.1-0.1,0.2c-0.4,0.9-0.9,1.8-1.2,2.7c-0.3,0.9-0.7,1.9-1.2,2.8c-0.5,0.8-1.3,1.4-2,1.9c-0.8,0.6-1.6,1.1-2.6,1.3
		c-0.7,0.2-1.4,0.3-2.1,0c-0.8-0.4-1.7-0.8-2.2-1.5c-0.5-0.7-1-1.3-1.3-2.1c-0.1-0.3-0.2-0.6-0.3-0.9c-0.1-0.4-0.1-0.8-0.2-1.1
		c-0.1-0.4-0.1-0.8,0-1.2c0.1-1.1,0.2-2.2,0.3-3.3c0.1-0.5,0.1-0.9,0.3-1.4c0.7-1.7,1.1-3.4,2.2-4.9c0.4-0.5,0.7-1.1,1-1.6
		c0.4-0.7,0.9-1.2,1.4-1.9c0.4-0.6,0.6-1.3,1-1.9c0.5-0.7,0.9-1.3,1.4-2c0.5-0.8,1.1-1.6,2-2.2c0.3-0.2,0.8-0.3,1.2-0.4
		c0.2-0.1,0.5,0,0.7,0c0.5,0,1,0,1.5,0.3c0.5,0.3,1,0.6,1.5,1c0.6,0.5,0.7,1.1,0.8,1.8c0.1,1.2,0.1,2.4-0.1,3.6
		c0,0.3-0.1,0.6-0.2,0.9c0,0.4-0.2,0.8-0.2,1.2c-0.1,0.8-0.3,1.6-0.4,2.4c0,0.1,0.1,0.2,0.1,0.4c0.3-0.1,0.6-0.2,0.9-0.3
		c1.2-0.6,2.1-1.5,3.2-2.2c0.3-0.2,0.5-0.6,0.8-0.9c0.8-0.9,1.7-1.8,2.5-2.7c0.4-0.4,0.6-0.9,1-1.4c0-0.1,0.1-0.1,0.1-0.2
		c0.8-0.6,1-1.5,1.6-2.2c0.3-0.4,0.6-0.8,0.8-1.2c0.3-0.5,0.6-0.9,0.6-1.5c0.1-0.8,0.5-1.5,1.1-2.2c0.2-0.2,0.5-0.3,0.9-0.4
		c0.6-0.1,1.2-0.1,1.7,0c0.7,0.1,1.3,0.4,1.9,0.8c0.1,0,0.1,0.2,0.1,0.3c0,0.8,0,1.5-0.3,2.2c-0.3,0.7-0.6,1.4-0.8,2.1
		c-0.2,0.6-0.3,1.3-0.5,1.9c-0.3,0.9-0.5,1.8-0.8,2.7c-0.3,1.2-0.7,2.3-0.9,3.5c-0.1,0.5-0.2,1-0.4,1.4c-0.1,0.2-0.4,1.4-0.1,1.5
		C140.9,68.5,141,68.5,141,68.5 M118.4,78.8c-0.1-0.1,2.2-2.8,2.4-3.2c0.1-0.3,0.3-0.6,0.4-0.9c0.2-0.4,0.4-0.8,0.5-1.2
		c0.2-0.5,0.3-1,0.5-1.4c0.2-0.4,0.2-0.8,0.4-1.1c0.1-0.3,0-0.4-0.3-0.5c-0.5-0.2-1-0.4-1.4-0.7c-0.4-0.3-0.7-0.6-1-0.9
		c-0.2-0.2-0.6-0.4-0.8-0.7c-0.1-0.1-0.1-0.3-0.3-0.2c-0.2,0-0.4,0.7-0.4,0.8c-0.1,0.3-0.2,0.6-0.3,0.9c-0.2,0.6-0.4,1.2-0.5,1.8
		c-0.3,1.1-0.3,2.1-0.3,3.2c0,1.3,0.2,2.5,0.6,3.7C117.9,78.4,118.1,78.6,118.4,78.8 M124.3,63.5C124.3,63.5,124.3,63.5,124.3,63.5
		c0-0.4,0.2-1.5-0.3-1.5c-0.5,0-1.2,0.9-1.3,1.3c-0.1,0.5-0.2,1.1-0.1,1.6c0.1,0.3,0.3,0.6,0.4,0.9c0.1,0.2,0.6,1.4,0.8,0.6
		C124.1,65.4,124.4,64.5,124.3,63.5"/>
</g>
</svg>
