<?xml version="1.0" encoding="utf-8"?>
<!-- Generator: Adobe Illustrator 19.0.1, SVG Export Plug-In . SVG Version: 6.00 Build 0)  -->
<svg version="1.1" id="Layer_1" xmlns="http://www.w3.org/2000/svg" xmlns:xlink="http://www.w3.org/1999/xlink" x="0px" y="0px"
	 viewBox="0 0 394.9 216.7" style="enable-background:new 0 0 394.9 216.7;" xml:space="preserve">
<style type="text/css">
	.st0{fill-rule:evenodd;clip-rule:evenodd;fill:#111111;}
</style>
<g>
	<path class="st0" d="M81.2,53.9c-1,0.5-2,1.1-3,1.8c-2.5,1.8-5.2,3.5-7.5,5.5c-4,3.4-7.9,7-11.7,10.7c-2.7,2.7-4.9,5.8-7.5,8.9
		c-1.1-1.2-2-2.5-3.2-3.4c-5.2-4-10.6-7.8-16.9-10c-3.5-1.2-6.9-2.4-10.5-3.3c-2.3-0.6-4.8-0.7-7.3-0.6c-0.9,0-2.5,1-2.6,1.7
		c-0.3,5.5,1.2,10.5,4.5,14.9c1.6,2.2,3.6,4,5.5,5.9c3,2.9,5.9,5.9,9,8.6c4.4,3.8,8.9,7.4,13.5,11.1c0.7,0.5,1.4,1,2.1,1.5
		c0,0,0.1,0.1,0.1,0.1c0.1,0.1,0.3,0.1,0.5,0.3c0.1,0.1,0.1,0.1,0.2,0.1c0,0,0.1,0,0.1,0.1c0.1,0,0.2,0.1,0.3,0.2
		c0.6,0.2,1.1,0.6,1.6,1c1.6,0.9,3.3,1.7,4.7,2.8c0.3,0,0.5,0.2,0.7,0.3c0,0,0.1,0,0.1,0c0.3,0.1,0.5,0.3,0.8,0.5
		c1.9,0.7,3.6,1.8,5.5,2.6c0.1,0,0.1,0,0.2,0c0.2-0.1,0.4-0.1,0.7-0.2c0,0,0,0,0.1,0c0.1-0.1,0.2-0.1,0.3-0.1
		c0.4-0.3,0.8-0.5,1.2-0.7c0.1-0.1,0.2-0.1,0.3-0.2c0.1-0.2,0.2-0.3,0.3-0.5c1.9-3.9,3.7-7.7,5.4-11.7c0.4-0.8,0.8-1.6,1.1-2.4
		c0.1-0.1,0.1-0.2,0.2-0.4c0,0,0.1-0.1,0.1-0.2c0.3-0.9,0.6-1.8,0.9-2.7c1.1-3.1,2.6-6.1,4-9.2c0-0.1,0.1-0.1,0.1-0.2
		c0.3-0.6,0.5-1.1,0.8-1.7c0,0,0,0,0,0c0,0,0-0.1,0.1-0.1c0-0.1,0.1-0.1,0.1-0.2c0.1-0.3,0.3-0.5,0.4-0.8c0.1-0.1,0.2-0.3,0.2-0.4
		c0.2-0.3,0.4-0.6,0.6-0.9c0.9-2.1,1.7-4.2,2.5-6.2c0.8-1.9,1.7-3.7,2.4-5.6c1-2.8,1.8-5.7,2.8-8.4c0.7-1.8,1.8-3.4,1.4-5.7
		C85.7,54.1,83.5,52.7,81.2,53.9z M57.7,108.4c-3.7-2.7-7.4-5.3-11.1-8.1c-3.2-2.4-6.4-4.9-9.5-7.5c-2.7-2.2-5.1-4.7-7.7-7.1
		c-1.4-1.2-2.8-2.4-4.2-3.5c-3.2-2.7-5.8-5.9-7.5-9.7c-0.4-0.9-0.6-2-0.9-3.2c-0.1-0.2-0.1-0.4,0.2-0.5c0,0,0.1,0,0.1,0l0,0
		c1.9,0.3,3.7,0.4,5.3,0.8c3.8,0.9,7.8,1.4,11.2,3.7c0.7,0.5,1.4,0.9,2.1,1.3c1.3,0.8,2.6,1.6,3.9,2.4c1.6,1,3,2.2,4.5,3.3
		c0.1,0,0.1,0,0.1,0.1c0,0,0.1,0.1,0.1,0.1c0.1,0.1,0.2,0.1,0.3,0.2c0,0,0,0,0.1,0c1,0.6,1.7,1.4,2.4,2.3c0.6,0.5,1.2,1.2,1.7,1.8
		c0.8,1,1.8,2,2.7,2.9c0.2,0.1,0.4,0.1,0.7,0.2c0.4,0,0.8,0,1.2,0c0.2-0.1,0.5-0.2,0.7-0.3c1.5-1.9,3.1-3.8,4.6-5.8
		c0.4-0.5,0.7-0.9,1.1-1.3c0-0.1,0.1-0.1,0.1-0.2c0.2-0.3,0.4-0.6,0.7-0.9c0.6-1,1.5-1.7,2.4-2.5c1.1-1.1,1.9-2.4,3-3.4c0,0,0,0,0,0
		c0-0.1,0.1-0.2,0.2-0.2c0-0.1,0.1-0.1,0.1-0.1c0.1-0.1,0.3-0.2,0.4-0.4c2.2-2.5,4.6-4.9,7.3-6.9c0.9-0.7,1.8-1.3,2.9-1.9
		c0.1,0.1,0.1,0.1,0.2,0.2C71.3,79.1,65.1,94.1,57.7,108.4z"/>
	<path class="st0" d="M76.4,108.8c0.5,1.4-0.4,3.5-1.8,3.8c-1.2,0.3-2.2,0.1-2.6-1.3c-0.4-1.2,0.8-3.6,2-3.9
		C75,107.3,76.1,107.4,76.4,108.8z"/>
	<path class="st0" d="M256.1,126.9c-1.6,1.8-3,3.4-4.5,5c-4.5,5.2-8.4,4.9-11.9-0.9c-0.2-0.4-0.6-0.8-1.4-1.9c-1.1,2.7-2.1,5-3,7.2
		c-2.6,6.2-6.1,11.3-13.3,12.6c-0.9,0.2-1.6,1-2.5,1.6c-3.7,2.4-6.8,1.4-8.4-2.6c-0.5-1.3-1-2.5-1.6-3.7c-0.2-0.4-0.6-0.8-0.9-1.3
		c-4.1,1-8.2,1.9-12.2,2.9c-7.4,1.8-14.4,0.4-21.2-2.6c-4.8-2.1-8.3-5.2-8.6-10.9c-0.3-5.6,3.2-9.3,7.5-11.8
		c8.8-5,18.1-6.1,27.7-2.6c0.4,0.2,0.9,0.1,1.9,0.2C200.2,91.4,203,65,208,37.7c-4.8,4.7-9,8.6-13,12.6
		c-5.8,5.7-11.5,11.5-17.3,17.1c-2.3,2.2-3.5,4.5-3.7,7.9c-0.6,13-3.2,25.8-6.7,38.4c-1.1,4-3.1,4.7-6.3,2.8
		c-1.9-1.2-1.8-2.6-1.3-4.4c1-3.2,2.1-6.4,2.9-9.7c1.4-5.9,2.5-11.9,3.7-17.8c0.2-1.1,0-2.2,0-3.5c-7.4,4.4-28.8,35.3-36.8,53.3
		c3.7,1.5,7.3,3.1,11.1,4.3c16.3,5.2,31.7,12.6,47.3,19.6c9.9,4.5,11.6,14.1,4.7,22.5c-4.3,5.2-10.2,8.3-15.7,11.8
		c-7.6,4.9-15.9,8.2-24.5,10.9c-9.4,2.9-18.8,5.7-28.6,6.4c-7.1,0.6-14.2,0.7-21.3,0.6c-3.9,0-5.6-2-6.2-6.1
		c-1.5-10.7,0.3-21,4.7-30.7c3.8-8.3,8.1-16.3,12.3-24.4c2.1-4,4.3-7.9,6.7-12.2c-3.7-1.7-7-3-10.1-4.5c-5-2.5-9.9-5.1-14.8-7.8
		c-5.5-3-9.3-7.6-12.4-13.1c-2-3.6-1.4-6.6,1-9.3C88.7,96.9,93.4,91,98.9,86c5.6-5.1,11.8-9.5,18.2-13.6c8.5-5.4,17.4-10.3,26.3-15
		c3.5-1.9,7.5-3.2,11.5-3.8c5.8-0.9,12.6,0.6,18.4,8.5c13.2-12.6,26-25.4,38.2-38.9c5.7,0.8,6.7,2,5.8,7.4c-2.1,12.7-4.4,25.3-6,38
		c-1.6,13.1-2,26.3-0.7,39.5c0.7,6.7,1.6,13.4,2.3,20.1c0.2,2,0.8,3.5,2.9,4.3c2.5,0.9,3.1,2.7,2.7,5.3c-0.2,1,0.3,2.9,0.9,3
		c1.1,0.3,2.6-0.1,3.6-0.7c1-0.6,1.7-1.7,2.2-2.7c5.2-9.3,9.6-19,12.1-29.4c1.3-5.4,1.2-11.1,2-16.6c2.1-14.9,4.6-29.7,6.6-44.6
		c1.1-8.7,1.4-17.5,2.2-26.2c0.4-4.6,1.2-9.2,1.8-14.4c3,0.9,5.2,1.5,8.1,2.4c-0.6,7-1.1,13.8-1.8,20.6c-0.8,7.5-1.8,15.1-2.6,22.6
		c-1.4,12.6-2.7,25.2-4.3,37.8c-0.6,4.8-2.4,9.5-2.9,14.4c-0.7,6.5-0.6,13.1-0.8,19.7c0,0.4,0.4,0.8,0.8,1.6c0.9-1,1.7-1.8,2.4-2.7
		c4-5.3,6.6-5.6,11.7-1.5c4.1,3.3,8.2,6.5,12.6,9.4c10.4,6.7,22,8.2,34.1,7.3c14.5-1.1,27.8-5.9,40-13.4
		c11.1-6.7,20.7-15.2,26.2-27.5c2.3-5.1,4.1-10.2,0.7-15.4c-3.9-6-9.4-9.6-16.8-10c-9.3-0.5-18.2,1.4-26.8,4.7
		c-3.4,1.3-7.3,1.4-10.3,4.1c-0.3,0.3-1.8,0-2.2-0.4c-0.5-0.6-1-2-0.7-2.5c0.9-1.4,2-2.8,3.4-3.5c7.9-4.5,16.3-7.2,25.3-8.2
		c6.7-0.7,13.4-0.8,20.1,1.2c7.1,2.1,12.3,6.5,15.6,12.9c3,6,2.2,12.3-0.4,18.1c-5.2,11.8-13.4,21.2-24.1,28.7
		c-6.5,4.6-13.5,8.4-20.8,11.2c-13.3,5.1-27,8.1-41.6,6.3c-8.2-1-16.1-2.4-23.4-6.2c-4.3-2.2-8.1-5.4-12.1-8.2
		C258.4,128.7,257.4,127.9,256.1,126.9z M127,139.2c-1.3,2-2.3,3.2-3,4.6c-5.4,10.7-10.7,21.5-16,32.2c-3.5,7.1-5.1,14.6-5.2,22.5
		c-0.1,5.6,0.4,6.2,5.9,6.3c10.9,0.3,21.6-1.2,32.1-3.6c12.8-2.9,24.4-8.8,35.7-15.3c5.1-2.9,9.2-6.8,12.1-12c1.5-2.6,1.3-4.8-0.6-7
		c-2.9-3.4-6-6.3-10.4-7.8c-7.6-2.7-15.2-5.6-22.7-8.6C145.7,146.8,136.5,143,127,139.2z M122,131.6c1.2-1.4,1.8-2,2.2-2.7
		c5.9-9.4,11.9-18.8,17.7-28.3c5.1-8.4,11.2-15.9,18-23c2.2-2.3,4-5,5.9-7.6c1.5-2,1.2-4.4-0.3-6.1c-1.4-1.6-3.4-2.9-5.4-3.6
		c-4-1.4-8-0.7-11.9,0.8c-7.2,2.7-13.8,6.2-20.1,10.6c-10.4,7.3-21,14.3-29.7,23.6c-2.9,3.1-5.5,6.4-8.2,9.6
		c-1.9,2.3-1.8,4.7,0.3,6.9c2.7,2.8,5,6.3,8.2,8.2C106.2,124.3,114.1,127.7,122,131.6z M206.3,135.3c-0.5-2.8-0.8-5.3-1.4-7.8
		c-0.3-1.1-1-2.2-1.9-2.8c-2.9-2.1-6-3.7-9.8-3.6c-5.5,0-10.3,2-14.6,5c-1.4,1-2.5,2.7-3.4,4.3c-1.5,2.8-1.2,4.1,1.3,6.1
		c4.3,3.4,9.3,4.9,14.7,4.1C196.5,139.9,201.4,138.4,206.3,135.3z"/>
</g>
</svg>
